<svg height="512pt" viewBox="0 0 512.00012 512" width="512pt" xmlns="http://www.w3.org/2000/svg"><path d="m367.933594 119.082031h-.070313c13.96875 44.285157 20.902344 90.484375 20.550781 136.917969h123.585938c.117188-62.132812-22.488281-122.164062-63.558594-168.785156-25.15625 14.453125-52.273437 25.1875-80.507812 31.867187zm0 0" fill="#96c8ef"/><path d="m144.136719 119.101562h-.070313c-28.234375-6.679687-55.351562-17.414062-80.507812-31.867187-41.066406 46.617187-63.671875 106.640625-63.558594 168.765625h123.585938c-.351563-46.425781 6.582031-92.621094 20.550781-136.898438zm0 0" fill="#5aaae7"/><path d="m144.136719 392.898438c-13.96875-44.277344-20.902344-90.472657-20.550781-136.898438h-123.585938c-.117188 62.132812 22.488281 122.160156 63.558594 168.78125 25.15625-14.453125 52.273437-25.1875 80.507812-31.867188zm0 0" fill="#3d9ae2"/><path d="m367.863281 392.898438h.070313c28.234375 6.679687 55.351562 17.414062 80.507812 31.867187 41.066406-46.617187 63.671875-106.640625 63.558594-168.765625h-123.585938c.351563 46.425781-6.582031 92.621094-20.550781 136.898438zm0 0" fill="#78b9eb"/><path d="m123.585938 256c-.351563 46.425781 6.582031 92.621094 20.550781 136.898438 36.597656-9.015626 74.171875-13.488282 111.863281-13.3125v-123.585938zm0 0" fill="#1e81ce"/><path d="m256 379.585938c37.691406-.175782 75.261719 4.296874 111.863281 13.3125 13.96875-44.277344 20.902344-90.472657 20.550781-136.898438h-132.414062zm0 0" fill="#5aaae7"/><path d="m256 132.414062c-37.691406.175782-75.265625-4.296874-111.863281-13.3125-13.96875 44.277344-20.902344 90.46875-20.550781 136.898438h132.414062zm0 0" fill="#3d9ae2"/><path d="m256 256h132.414062c.351563-46.425781-6.582031-92.621094-20.550781-136.898438-36.601562 9.015626-74.171875 13.488282-111.863281 13.3125zm0 0" fill="#78b9eb"/><path d="m144.136719 119.101562c23.472656-71.566406 64.785156-119.101562 111.863281-119.101562-73.738281-.105469-143.914062 31.699219-192.441406 87.214844 25.15625 14.453125 52.273437 25.1875 80.507812 31.867187zm0 0" fill="#78b9eb"/><path d="m367.863281 119.101562h.070313c28.234375-6.679687 55.351562-17.414062 80.507812-31.867187-48.527344-55.523437-118.703125-87.335937-192.441406-87.234375 47.078125 0 88.390625 47.535156 111.863281 119.101562zm0 0" fill="#c2dff6"/><path d="m144.136719 119.101562c36.597656 9.015626 74.171875 13.488282 111.863281 13.3125v-132.414062c-47.078125 0-88.390625 47.535156-111.863281 119.101562zm0 0" fill="#5aaae7"/><path d="m367.863281 119.101562c-23.472656-71.566406-64.785156-119.101562-111.863281-119.101562v132.414062c37.691406.175782 75.261719-4.296874 111.863281-13.3125zm0 0" fill="#96c8ef"/><path d="m144.136719 392.898438h-.070313c-28.234375 6.679687-55.351562 17.414062-80.507812 31.867187 48.527344 55.523437 118.703125 87.332031 192.441406 87.234375-47.078125 0-88.390625-47.539062-111.863281-119.101562zm0 0" fill="#1e81ce"/><path d="m367.863281 392.898438c-23.472656 71.5625-64.785156 119.101562-111.863281 119.101562 73.738281.101562 143.910156-31.699219 192.441406-87.21875-25.15625-14.453125-52.273437-25.1875-80.507812-31.867188zm0 0" fill="#5aaae7"/><path d="m144.136719 392.898438c23.472656 71.5625 64.785156 119.101562 111.863281 119.101562v-132.414062c-37.691406-.175782-75.265625 4.296874-111.863281 13.3125zm0 0" fill="#1a6fb0"/><path d="m367.863281 392.898438c-36.601562-9.015626-74.171875-13.488282-111.863281-13.3125v132.414062c47.078125 0 88.390625-47.539062 111.863281-119.101562zm0 0" fill="#3d9ae2"/></svg>